<svg version="1.2" xmlns="http://www.w3.org/2000/svg" viewBox="0 0 364 153" width="364" height="153"><style>tspan{white-space:pre}.a{fill:#fff}.b{font-size: 102px;fill: #ffffff;font-weight: 700;font-family: "Montserrat-Bold", "Montserrat"}</style><path class="a" d="m119.5 60.8c-5.3-27.1-31.6-44.8-58.7-39.5-27.1 5.3-44.8 31.6-39.5 58.7 5.3 27.1 31.6 44.8 58.7 39.5 27.1-5.3 44.8-31.6 39.5-58.7zm-21.8 32.5l-45.3-30.5 2.9 14.8c0.4 2-1 4-3 4.4-2 0.4-4-0.9-4.4-3l-4.6-23.7c-0.4-2 0.9-4 2.9-4.4l23.7-4.6c2-0.4 4 1 4.4 3 0.4 2-0.9 4-2.9 4.4l-14.9 2.9 45.3 30.4c0.9 0.6 1.4 1.5 1.6 2.4 0.2 1 0.1 2-0.5 2.8-1.2 1.7-3.5 2.2-5.2 1.1z"/><text style="transform:matrix(1,0,0,1,122,106)" ><tspan x="0" y="0" class="b">P</tspan><tspan  y="0" class="b">i</tspan><tspan  y="0" class="b">n</tspan><tspan  y="0" class="b">e</tspan><tspan  y="0" class="b">
</tspan></text></svg>