<svg version="1.2" xmlns="http://www.w3.org/2000/svg" viewBox="0 0 74 29" width="74" height="29"><style>tspan{white-space:pre}.a{fill:#fff}.b{font-size: 24px;fill: #ffffff;font-weight: 400;font-family: "DejaVuSans", "DejaVu Sans"}</style><path class="a" d="m21.9 12.2c-1.1-5.5-6.3-9-11.7-7.9-5.5 1-9 6.3-7.9 11.7 1 5.4 6.3 9 11.7 7.9 5.4-1.1 9-6.3 7.9-11.7zm-4.4 6.5l-9-6.1 0.6 2.9c0 0.4-0.2 0.8-0.6 0.9-0.4 0.1-0.8-0.2-0.9-0.6l-0.9-4.7c-0.1-0.4 0.1-0.8 0.5-0.9l4.8-0.9c0.4-0.1 0.8 0.2 0.9 0.6 0 0.4-0.2 0.8-0.6 0.8l-3 0.6 9.1 6.1q0.2 0.2 0.3 0.5 0 0.3-0.1 0.5c-0.3 0.4-0.7 0.5-1.1 0.3z"/><text style="transform:matrix(1,0,0,1,24,23)" ><tspan x="0" y="0" class="b">P</tspan><tspan  y="0" class="b">i</tspan><tspan  y="0" class="b">n</tspan><tspan  y="0" class="b">e
</tspan></text></svg>